<svg xmlns="http://www.w3.org/2000/svg" width="116.41pt" height="119.47pt" fill-rule="evenodd" viewBox="0 0 116.41 119.46999"><path d="m239.811 1244.84.025 4.08h13.336s.163.68-.17 3.34c-.321 2.58-2.079 8.74-13.241 9.39l-.005 3.59s18.898.38 19.966-14.42c0 0 .335-4.49.168-5.99l-20.079.01zM261.652 1264.32c-5.922 0-10.728 4.04-10.728 9.02 0 4.97 4.806 9.01 10.728 9.01 5.927 0 10.729-4.04 10.729-9.01 0-4.98-4.802-9.02-10.729-9.02zm0 13.57c-2.341 0-4.235-2.04-4.235-4.57 0-2.51 1.894-4.55 4.235-4.55 2.342 0 4.236 2.04 4.236 4.55 0 2.53-1.894 4.57-4.236 4.57zM298.274 1264.32c-5.922 0-10.729 4.04-10.729 9.02 0 4.97 4.807 9.01 10.729 9.01 5.926 0 10.729-4.04 10.729-9.01 0-4.98-4.803-9.02-10.729-9.02zm0 13.57c-2.339 0-4.236-2.04-4.236-4.57 0-2.51 1.897-4.55 4.236-4.55 2.34 0 4.235 2.04 4.235 4.55 0 2.53-1.895 4.57-4.235 4.57zM298.986 1244.93h-7.548v-2.68h-6.483v2.68h-7.762v3.91h4.247c-1.657 1.57-2.68 3.7-2.68 6.05 0 4.81 4.273 8.7 9.543 8.7 5.274 0 9.546-3.89 9.546-8.7 0-2.35-1.022-4.48-2.679-6.05h3.816zm-10.789 13.62c-1.999 0-3.618-1.69-3.618-3.76 0-2.08 1.619-3.77 3.618-3.77 2 0 3.618 1.69 3.618 3.77 0 2.07-1.618 3.76-3.618 3.76zM272.241 1244.85h-10.704v4.04h6.427v2.84h-6.427v4.11h6.427v7.67h6.83v-5.34l.02-10.66s.216-2.66-2.573-2.66zM305.382 1244.85h10.238v4.04h-5.961v2.84h5.961v4.11h-5.961v7.67h-6.828v-5.34l-.019-10.66s-.219-2.66 2.57-2.66z" style="fill:#2c4a79;stroke:none" transform="translate(-239.756 -1203.37)"/><path d="M349.155 1203.37h-91.212v25.97h13.864v-12.11h70.418v91.68h-70.418v-12.01h-13.864v25.87h98.145v-119.4z" style="fill:#2c4a79;stroke:none" transform="translate(-239.756 -1203.37)"/></svg>